<svg width="1830" height="589" viewBox="0 0 356.5 72.701" xmlns="http://www.w3.org/2000/svg"><g id="svgGroup" stroke-linecap="round" fill-rule="evenodd" font-size="9pt" stroke="#ffffff" stroke-width="0.25mm" fill="#ffffff" style="stroke:#ffffff;stroke-width:0.25mm;fill:#ffffff"><path d="M 72.3 69.1 L 72.3 40.2 A 23.964 23.964 0 0 0 71.682 34.612 A 17.075 17.075 0 0 0 68.25 27.6 A 12.906 12.906 0 0 0 58.897 22.743 A 16.383 16.383 0 0 0 57.7 22.7 A 17.061 17.061 0 0 0 52.332 23.51 A 14.174 14.174 0 0 0 46.45 27.25 A 14.662 14.662 0 0 0 42.677 34.691 Q 42.233 36.919 42.3 39.5 L 36.3 39.5 A 30.466 30.466 0 0 1 37.059 33.427 A 23.282 23.282 0 0 1 39.3 27.5 Q 42.1 22.4 46.9 19.55 A 20.484 20.484 0 0 1 56.586 16.725 A 24.581 24.581 0 0 1 57.7 16.7 A 20.963 20.963 0 0 1 63.737 17.541 A 17.867 17.867 0 0 1 68.4 19.7 A 20.435 20.435 0 0 1 75.092 26.947 A 24.588 24.588 0 0 1 75.65 28 A 24.869 24.869 0 0 1 77.987 35.645 A 32.061 32.061 0 0 1 78.3 40.2 L 78.3 69.1 A 3.463 3.463 0 0 1 78.148 70.147 A 2.835 2.835 0 0 1 77.5 71.25 A 2.635 2.635 0 0 1 76.05 72.031 A 3.872 3.872 0 0 1 75.3 72.1 A 3.256 3.256 0 0 1 74.217 71.926 A 2.806 2.806 0 0 1 73.15 71.25 A 2.871 2.871 0 0 1 72.305 69.303 A 3.82 3.82 0 0 1 72.3 69.1 Z M 36.3 69.1 L 36.3 40.2 A 23.964 23.964 0 0 0 35.682 34.612 A 17.075 17.075 0 0 0 32.25 27.6 A 12.906 12.906 0 0 0 22.897 22.743 A 16.383 16.383 0 0 0 21.7 22.7 A 17.683 17.683 0 0 0 16.323 23.483 A 14.456 14.456 0 0 0 10.4 27.1 A 14.834 14.834 0 0 0 6.13 36.171 A 20.314 20.314 0 0 0 6 38.5 L 1 38.5 A 27.896 27.896 0 0 1 2.01 32.123 A 22.851 22.851 0 0 1 4.05 27.2 Q 6.8 22.3 11.4 19.5 Q 16 16.7 21.7 16.7 A 20.963 20.963 0 0 1 27.737 17.541 A 17.867 17.867 0 0 1 32.4 19.7 A 20.435 20.435 0 0 1 39.092 26.947 A 24.588 24.588 0 0 1 39.65 28 A 24.869 24.869 0 0 1 41.987 35.645 A 32.061 32.061 0 0 1 42.3 40.2 L 42.3 69.1 A 3.463 3.463 0 0 1 42.148 70.147 A 2.835 2.835 0 0 1 41.5 71.25 A 2.635 2.635 0 0 1 40.05 72.031 A 3.872 3.872 0 0 1 39.3 72.1 A 3.256 3.256 0 0 1 38.217 71.926 A 2.806 2.806 0 0 1 37.15 71.25 A 2.871 2.871 0 0 1 36.305 69.303 A 3.82 3.82 0 0 1 36.3 69.1 Z M 0 69.1 L 0 20.4 A 3.713 3.713 0 0 1 0.11 19.471 A 2.596 2.596 0 0 1 0.85 18.2 Q 1.7 17.4 3 17.4 Q 4.4 17.4 5.2 18.2 A 2.646 2.646 0 0 1 5.906 19.509 A 3.969 3.969 0 0 1 6 20.4 L 6 69.1 A 3.463 3.463 0 0 1 5.848 70.147 A 2.835 2.835 0 0 1 5.2 71.25 A 2.635 2.635 0 0 1 3.75 72.031 A 3.872 3.872 0 0 1 3 72.1 A 3.256 3.256 0 0 1 1.917 71.926 A 2.806 2.806 0 0 1 0.85 71.25 A 2.871 2.871 0 0 1 0.005 69.303 A 3.82 3.82 0 0 1 0 69.1 Z" id="0" vector-effect="non-scaling-stroke"/><path d="M 140.3 46.6 L 96.3 46.6 L 96.3 41.4 L 141.9 41.4 L 137.5 44.7 A 32.227 32.227 0 0 0 137.516 43.709 Q 137.516 40.59 136.895 37.828 A 21.604 21.604 0 0 0 135.3 33.2 Q 132.9 28.2 128.45 25.35 Q 124 22.5 118 22.5 A 19.434 19.434 0 0 0 111.595 23.531 A 17.613 17.613 0 0 0 107.85 25.35 A 19.651 19.651 0 0 0 101.093 32.736 A 23.298 23.298 0 0 0 100.85 33.2 A 23.069 23.069 0 0 0 98.629 40.263 A 30.159 30.159 0 0 0 98.3 44.8 A 26.623 26.623 0 0 0 99.018 51.104 A 21.643 21.643 0 0 0 101 56.3 Q 103.7 61.3 108.5 64.15 A 20.418 20.418 0 0 0 117.132 66.891 A 25.321 25.321 0 0 0 119.5 67 A 23.901 23.901 0 0 0 126.61 65.891 A 27.192 27.192 0 0 0 127.35 65.65 A 21.658 21.658 0 0 0 130.262 64.426 Q 131.765 63.652 132.923 62.7 A 12.043 12.043 0 0 0 133.6 62.1 Q 134.4 61.3 135.55 61.25 A 3.494 3.494 0 0 1 135.702 61.247 Q 136.261 61.247 136.733 61.431 A 2.586 2.586 0 0 1 137.5 61.9 Q 138.356 62.601 138.576 63.422 A 2.233 2.233 0 0 1 138.65 63.9 Q 138.7 65 137.7 65.9 Q 134.7 68.619 129.986 70.459 A 36.427 36.427 0 0 1 129.35 70.7 A 31.905 31.905 0 0 1 124.005 72.183 A 25.219 25.219 0 0 1 119.5 72.6 A 29.97 29.97 0 0 1 111.275 71.508 A 25.601 25.601 0 0 1 105.45 69.05 Q 99.3 65.5 95.8 59.2 Q 92.3 52.9 92.3 44.8 Q 92.3 36.6 95.6 30.35 Q 98.9 24.1 104.7 20.5 A 24.061 24.061 0 0 1 115.684 16.989 A 29.684 29.684 0 0 1 118 16.9 A 26.98 26.98 0 0 1 125.585 17.932 A 23.079 23.079 0 0 1 131.1 20.35 Q 136.8 23.8 140 29.85 Q 143.2 35.9 143.2 43.8 A 3.415 3.415 0 0 1 143.097 44.663 A 2.432 2.432 0 0 1 142.4 45.85 A 2.721 2.721 0 0 1 140.994 46.54 A 3.86 3.86 0 0 1 140.3 46.6 Z" id="1" vector-effect="non-scaling-stroke"/><path d="M 200.5 69.1 L 200.5 42.2 A 28.167 28.167 0 0 0 200.142 37.574 Q 199.712 34.996 198.768 32.883 A 15.476 15.476 0 0 0 197.95 31.3 Q 195.4 27 191.05 24.85 A 20.766 20.766 0 0 0 184.203 22.87 A 25.871 25.871 0 0 0 181.2 22.7 A 24.412 24.412 0 0 0 175.548 23.331 A 20.239 20.239 0 0 0 171.5 24.75 A 17.915 17.915 0 0 0 166.878 27.871 A 16.044 16.044 0 0 0 164.7 30.4 Q 162.2 34 162.2 38.5 L 157.2 38.5 Q 157.6 32.3 160.9 27.35 Q 164.2 22.4 169.5 19.55 A 24.126 24.126 0 0 1 180.404 16.711 A 28.293 28.293 0 0 1 181.2 16.7 A 30.276 30.276 0 0 1 188.841 17.634 A 25.82 25.82 0 0 1 194.15 19.65 Q 199.9 22.6 203.2 28.25 A 23.091 23.091 0 0 1 205.775 35.001 Q 206.41 37.896 206.489 41.237 A 40.6 40.6 0 0 1 206.5 42.2 L 206.5 69.1 A 3.256 3.256 0 0 1 206.326 70.184 A 2.806 2.806 0 0 1 205.65 71.25 A 2.871 2.871 0 0 1 203.703 72.095 A 3.82 3.82 0 0 1 203.5 72.1 A 3.256 3.256 0 0 1 202.417 71.926 A 2.806 2.806 0 0 1 201.35 71.25 A 2.871 2.871 0 0 1 200.505 69.303 A 3.82 3.82 0 0 1 200.5 69.1 Z M 156.2 69.1 L 156.2 20.4 A 3.713 3.713 0 0 1 156.31 19.471 A 2.596 2.596 0 0 1 157.05 18.2 Q 157.9 17.4 159.2 17.4 Q 160.6 17.4 161.4 18.2 A 2.646 2.646 0 0 1 162.106 19.509 A 3.969 3.969 0 0 1 162.2 20.4 L 162.2 69.1 A 3.463 3.463 0 0 1 162.048 70.147 A 2.835 2.835 0 0 1 161.4 71.25 A 2.635 2.635 0 0 1 159.95 72.031 A 3.872 3.872 0 0 1 159.2 72.1 A 3.256 3.256 0 0 1 158.117 71.926 A 2.806 2.806 0 0 1 157.05 71.25 A 2.871 2.871 0 0 1 156.205 69.303 A 3.82 3.82 0 0 1 156.2 69.1 Z" id="2" vector-effect="non-scaling-stroke"/><path d="M 248.2 72.1 L 245.9 72.1 A 21.873 21.873 0 0 1 240.092 71.244 A 18.728 18.728 0 0 1 236.1 69.55 Q 231.8 67.1 229.4 62.75 A 19.397 19.397 0 0 1 227.092 55.005 A 23.772 23.772 0 0 1 227 52.9 L 227 3.1 A 3.74 3.74 0 0 1 227.127 2.1 A 2.787 2.787 0 0 1 227.85 0.85 A 2.871 2.871 0 0 1 229.797 0.005 A 3.82 3.82 0 0 1 230 0 A 3.74 3.74 0 0 1 231.001 0.127 A 2.787 2.787 0 0 1 232.25 0.85 A 2.852 2.852 0 0 1 233.05 2.454 A 4.025 4.025 0 0 1 233.1 3.1 L 233.1 52.9 A 15.256 15.256 0 0 0 233.694 57.258 A 12.012 12.012 0 0 0 236.7 62.35 A 12.112 12.112 0 0 0 244.417 65.926 A 16.498 16.498 0 0 0 246 66 L 248.2 66 A 3.74 3.74 0 0 1 249.201 66.127 A 2.787 2.787 0 0 1 250.45 66.85 A 2.852 2.852 0 0 1 251.25 68.454 A 4.025 4.025 0 0 1 251.3 69.1 A 3.256 3.256 0 0 1 251.126 70.184 A 2.806 2.806 0 0 1 250.45 71.25 A 2.852 2.852 0 0 1 248.846 72.05 A 4.025 4.025 0 0 1 248.2 72.1 Z M 246.3 24.8 L 219.2 24.8 A 3.127 3.127 0 0 1 218.299 24.676 A 2.46 2.46 0 0 1 217.25 24.05 A 2.525 2.525 0 0 1 216.527 22.534 A 3.471 3.471 0 0 1 216.5 22.1 A 3.127 3.127 0 0 1 216.624 21.199 A 2.46 2.46 0 0 1 217.25 20.15 A 2.525 2.525 0 0 1 218.766 19.427 A 3.471 3.471 0 0 1 219.2 19.4 L 246.3 19.4 A 3.127 3.127 0 0 1 247.201 19.524 A 2.46 2.46 0 0 1 248.25 20.15 A 2.525 2.525 0 0 1 248.974 21.666 A 3.471 3.471 0 0 1 249 22.1 A 3.127 3.127 0 0 1 248.876 23.001 A 2.46 2.46 0 0 1 248.25 24.05 A 2.525 2.525 0 0 1 246.734 24.774 A 3.471 3.471 0 0 1 246.3 24.8 Z" id="3" vector-effect="non-scaling-stroke"/><path d="M 263.8 69.1 L 263.8 20.4 A 3.713 3.713 0 0 1 263.91 19.471 A 2.596 2.596 0 0 1 264.65 18.2 Q 265.5 17.4 266.8 17.4 Q 268.2 17.4 269 18.2 A 2.646 2.646 0 0 1 269.706 19.509 A 3.969 3.969 0 0 1 269.8 20.4 L 269.8 69.1 A 3.463 3.463 0 0 1 269.648 70.147 A 2.835 2.835 0 0 1 269 71.25 A 2.635 2.635 0 0 1 267.55 72.031 A 3.872 3.872 0 0 1 266.8 72.1 A 3.256 3.256 0 0 1 265.717 71.926 A 2.806 2.806 0 0 1 264.65 71.25 A 2.871 2.871 0 0 1 263.805 69.303 A 3.82 3.82 0 0 1 263.8 69.1 Z M 269.8 38.7 L 265.8 38.7 A 29.399 29.399 0 0 1 267.263 31.785 A 24.884 24.884 0 0 1 269.3 27.35 A 22.349 22.349 0 0 1 274.347 21.345 A 20.954 20.954 0 0 1 276.8 19.6 Q 281.4 16.8 287 16.8 A 25.929 25.929 0 0 1 289.184 16.886 Q 291.448 17.078 292.9 17.7 A 3.457 3.457 0 0 1 293.739 18.197 Q 294.883 19.137 294.5 20.9 A 3.531 3.531 0 0 1 294.285 21.61 Q 294.112 22.011 293.847 22.274 A 1.662 1.662 0 0 1 293.1 22.7 Q 292.219 22.94 291.049 22.828 A 9.451 9.451 0 0 1 290.45 22.75 A 19.022 19.022 0 0 0 288.704 22.555 A 25.333 25.333 0 0 0 287 22.5 Q 282 22.5 278.1 24.6 Q 274.2 26.7 272 30.35 Q 269.8 34 269.8 38.7 Z" id="4" vector-effect="non-scaling-stroke"/><path d="M 356.5 44.8 A 33.476 33.476 0 0 0 356.411 42.34 A 27.602 27.602 0 0 0 352.85 30.45 Q 349.2 24.1 342.9 20.45 A 26.242 26.242 0 0 0 337.282 18.02 A 30.004 30.004 0 0 0 328.6 16.8 A 33.476 33.476 0 0 0 326.14 16.889 A 27.602 27.602 0 0 0 314.25 20.45 Q 307.9 24.1 304.25 30.45 A 26.624 26.624 0 0 0 301.887 35.882 A 30.079 30.079 0 0 0 300.6 44.8 A 33.217 33.217 0 0 0 300.638 46.389 A 27.679 27.679 0 0 0 304.25 59.05 Q 307.9 65.4 314.25 69.05 A 26.624 26.624 0 0 0 319.682 71.413 A 30.079 30.079 0 0 0 328.6 72.7 A 31.438 31.438 0 0 0 331.934 72.527 A 25.311 25.311 0 0 0 341.6 69.55 Q 347.3 66.4 350.65 61 A 21.847 21.847 0 0 0 352.625 56.938 A 23.638 23.638 0 0 0 354 48.8 L 356.5 44.8 L 352.4 44.8 L 350.5 50.8 L 350.5 69.1 A 3.82 3.82 0 0 0 350.505 69.303 A 2.871 2.871 0 0 0 351.35 71.25 A 2.787 2.787 0 0 0 352.6 71.973 A 3.74 3.74 0 0 0 353.6 72.1 A 3.672 3.672 0 0 0 353.961 72.083 A 2.664 2.664 0 0 0 355.7 71.25 A 2.835 2.835 0 0 0 356.348 70.147 A 3.463 3.463 0 0 0 356.5 69.1 L 356.5 44.8 Z M 328.6 67.1 A 22.99 22.99 0 0 0 335.519 66.087 A 20.303 20.303 0 0 0 339.85 64.15 Q 344.8 61.2 347.65 56.15 A 22.259 22.259 0 0 0 350.453 46.404 A 26.838 26.838 0 0 0 350.5 44.8 A 24.587 24.587 0 0 0 349.548 37.851 A 21.347 21.347 0 0 0 347.65 33.35 Q 344.8 28.3 339.85 25.35 A 21.03 21.03 0 0 0 330.536 22.472 A 25.64 25.64 0 0 0 328.6 22.4 A 22.409 22.409 0 0 0 320.811 23.732 A 20.856 20.856 0 0 0 317.4 25.35 Q 312.4 28.3 309.5 33.35 A 21.958 21.958 0 0 0 306.686 42.64 A 26.812 26.812 0 0 0 306.6 44.8 A 23.531 23.531 0 0 0 307.733 52.187 A 21.259 21.259 0 0 0 309.5 56.15 Q 312.4 61.2 317.4 64.15 A 21.449 21.449 0 0 0 327.83 67.089 A 25.6 25.6 0 0 0 328.6 67.1 Z" id="5" vector-effect="non-scaling-stroke"/></g></svg>